# xmcd
#
# Track frame offsets:
#	150
#	17540
#	35540
#	51725
#	69095
#	86677
#	107432
#	124217
#	139960
#	157360
#	175322
#	191515
#	208897
#	226425
#	247195
#	263942
#
# Disc length: 3729 seconds
#
# Revision: 1
# Processed by: cddbd v1.5.2PL0 Copyright (c) Steve Scherf et al.
# Submitted via: audiograbber 1.83.01
#
DISCID=f10e8f10
DTITLE=Various Artist - SC3050
DYEAR=2001
DGENRE=Country
TTITLE0=Twain, Shania - Don't Be Stupid
TTITLE1=Morgan, Lorrie - One Of Those Nights Tonight
TTITLE2=Tritt, Travis - Still In Love With You
TTITLE3=Diamond Rio - Imagine That
TTITLE4=Chesney, Kenny - Chance, A
TTITLE5=Kershaw, Sammy - Love Of My Life
TTITLE6=Womack, Lee Ann - You've Got To Talk To Me
TTITLE7=Carter, Deana - Did I Shave My Legs For This
TTITLE8=Twain, Shania - Don't Be Stupid (vocal)
TTITLE9=Morgan, Lorrie - One Of Those Nights Tonight (vocal)
TTITLE10=Tritt, Travis - Still In Love With You (vocal)
TTITLE11=Diamond Rio - Imagine That (vocal)
TTITLE12=Chesney, Kenny - Chance, A (vocal)
TTITLE13=Kershaw, Sammy - Love Of My Life (vocal)
TTITLE14=Womack, Lee Ann - You've Got To Talk To Me (vocal)
TTITLE15=Carter, Deana - Did I Shave My Lets For This (vocal)
EXTD=Chuck
EXTT0=
EXTT1=
EXTT2=
EXTT3=
EXTT4=
EXTT5=
EXTT6=
EXTT7=
EXTT8=
EXTT9=
EXTT10=
EXTT11=
EXTT12=
EXTT13=
EXTT14=
EXTT15=
PLAYORDER=
